<?xml version="1.0" encoding="UTF-8" standalone="no"?>
<!-- Created with Inkscape (http://www.inkscape.org/) -->

<svg
   xmlns:dc="http://purl.org/dc/elements/1.1/"
   xmlns:cc="http://creativecommons.org/ns#"
   xmlns:rdf="http://www.w3.org/1999/02/22-rdf-syntax-ns#"
   xmlns:svg="http://www.w3.org/2000/svg"
   xmlns="http://www.w3.org/2000/svg"
   xmlns:sodipodi="http://sodipodi.sourceforge.net/DTD/sodipodi-0.dtd"
   xmlns:inkscape="http://www.inkscape.org/namespaces/inkscape"
   width="600mm"
   height="350mm"
   viewBox="0 0 600 350"
   version="1.1"
   id="svg4544"
   inkscape:version="0.92.4 (5da689c313, 2019-01-14)"
   sodipodi:docname="ledpanel_mary_final_3mm_8x8_LEDs_9x9_Nutrzen_gedreht_reste.svg">
  <defs
     id="defs4538" />
  <sodipodi:namedview
     id="base"
     pagecolor="#ffffff"
     bordercolor="#666666"
     borderopacity="1.0"
     inkscape:pageopacity="0.0"
     inkscape:pageshadow="2"
     inkscape:zoom="1"
     inkscape:cx="1227.8926"
     inkscape:cy="629.5577"
     inkscape:document-units="mm"
     inkscape:current-layer="g1378"
     showgrid="false"
     inkscape:window-width="3000"
     inkscape:window-height="1875"
     inkscape:window-x="-13"
     inkscape:window-y="-13"
     inkscape:window-maximized="1"
     showguides="true"
     inkscape:guide-bbox="true"
     inkscape:snap-bbox="true"
     inkscape:snap-others="true"
     inkscape:snap-smooth-nodes="false"
     inkscape:object-nodes="true"
     inkscape:bbox-nodes="true"
     inkscape:object-paths="false"
     inkscape:snap-global="true"
     inkscape:bbox-paths="true" />
  <metadata
     id="metadata4541">
    <rdf:RDF>
      <cc:Work
         rdf:about="">
        <dc:format>image/svg+xml</dc:format>
        <dc:type
           rdf:resource="http://purl.org/dc/dcmitype/StillImage" />
        <dc:title></dc:title>
      </cc:Work>
    </rdf:RDF>
  </metadata>
  <g
     inkscape:label="Ebene 1"
     inkscape:groupmode="layer"
     id="layer1"
     transform="translate(0,53)">
    <path
       style="fill:#00f300;fill-opacity:0.22429905;stroke:#000000;stroke-width:1;stroke-miterlimit:4;stroke-dasharray:none;stroke-opacity:1"
       d="m 8.1755417,54.183065 v 7.33237 h -0.0212 v 16.75866 H 39.942062 v -0.0408 h 7.33392 v -11.04995 h 3.19981 v 11.04995 h 13.49995 v -11.04995 h 3.1998 v 11.04995 h 13.49995 v -11.04995 h 3.20033 v 11.04995 h 13.499945 v -11.04995 h 3.199803 v 11.04995 h 13.49995 v -11.04995 h 3.20032 v 11.04995 h 13.49996 v -11.04995 h 3.1998 v 11.04995 h 13.49995 v -11.04995 h 3.20032 v 11.04995 h 13.49995 v -11.04995 h 3.19981 v 11.04995 h 13.49995 v -11.04995 h 3.20032 v 11.04995 h 10.40092 v 0.0196 h 28.66854 v -15.70651 h -0.0196 v -8.36332"
       id="path4690-4"
       inkscape:connector-curvature="0"
       sodipodi:nodetypes="cccccccccccccccccccccccccccccccccccccccccccccccc" />
    <path
       inkscape:connector-curvature="0"
       style="fill:#00f300;fill-opacity:0.22429905;stroke:#000000;stroke-width:1;stroke-miterlimit:4;stroke-dasharray:none;stroke-opacity:1"
       d="m 47.275972,78.233285 v 11.049958 h 3.19981 V 78.233295 m 13.49995,0 v 11.049948 h 3.1998 V 78.233295 m 13.49996,0 v 11.049948 h 3.20033 V 78.233295 m 13.499945,0 v 11.049948 h 3.199803 V 78.233295 m 13.49995,0 v 11.049948 h 3.20032 V 78.233295 m 13.49995,0 v 11.049948 h 3.19981 V 78.233295 m 13.49995,0 v 11.049948 h 3.20032 V 78.233295 m 13.49995,0 v 11.049948 h 3.1998 V 78.233295 m 13.49996,0 v 11.049948 h 3.20032 V 78.233295 m 39.06945,-0.0196 v 15.706508 h -0.0196 v 8.363317 l -214.9502183,-10e-6 v -7.332367 h -0.0212 V 78.192485"
       id="path4690-4-6"
       sodipodi:nodetypes="cccccccccccccccccccccccccccccccccccccccccccc" />
    <path
       style="fill:#00f300;fill-opacity:0.22429905;stroke:#000000;stroke-width:1;stroke-miterlimit:4;stroke-dasharray:none;stroke-opacity:1"
       d="m 8.1755317,102.28852 v 7.33237 h -0.0212 v 16.75866 H 39.942052 v -0.0408 h 7.33392 V 115.2888 h 3.19981 v 11.04995 h 13.49995 V 115.2888 h 3.1998 v 11.04995 h 13.49995 V 115.2888 h 3.20033 v 11.04995 H 97.375757 V 115.2888 h 3.199813 v 11.04995 h 13.49994 V 115.2888 h 3.20032 v 11.04995 h 13.49996 V 115.2888 h 3.1998 v 11.04995 h 13.49995 V 115.2888 h 3.20032 v 11.04995 h 13.49996 V 115.2888 h 3.1998 v 11.04995 h 13.49995 V 115.2888 h 3.20032 v 11.04995 h 10.40092 v 0.0196 h 28.66854 v -15.70651 h -0.0196 v -8.36332"
       id="path4690-4-7"
       inkscape:connector-curvature="0"
       sodipodi:nodetypes="cccccccccccccccccccccccccccccccccccccccccccccccc" />
    <path
       inkscape:connector-curvature="0"
       style="fill:#00f300;fill-opacity:0.22429905;stroke:#000000;stroke-width:1;stroke-miterlimit:4;stroke-dasharray:none;stroke-opacity:1"
       d="m 47.275952,30.132825 v 11.04997 h 3.19981 v -11.04996 m 13.49995,0 v 11.04996 h 3.1998 v -11.04996 m 13.49995,0 v 11.04996 h 3.20033 v -11.04996 m 13.499955,0 v 11.04996 h 3.199793 v -11.04996 m 13.49995,0 v 11.04996 h 3.20032 v -11.04996 m 13.49995,0 v 11.04996 h 3.19981 v -11.04996 m 13.49995,0 v 11.04996 h 3.20032 v -11.04996 m 13.49995,0 v 11.04996 h 3.1998 v -11.04996 m 13.49996,0 v 11.04996 h 3.20032 v -11.04996 m 39.06945,-0.0196 v 15.70651 h -0.0196 v 8.36332 l -214.9502183,-10e-6 v -7.33237 h -0.0212 v -16.75866"
       id="path4690-4-6-2"
       sodipodi:nodetypes="cccccccccccccccccccccccccccccccccccccccccccc" />
    <path
       style="fill:#00f300;fill-opacity:0.22429905;stroke:#000000;stroke-width:1;stroke-miterlimit:4;stroke-dasharray:none;stroke-opacity:1"
       d="m 8.1755017,6.082605 v 7.33237 h -0.0212 v 16.75866 H 39.942022 v -0.0408 h 7.33392 v -11.04995 h 3.19981 v 11.04995 h 13.49995 v -11.04995 h 3.1998 v 11.04995 h 13.49995 v -11.04995 h 3.20033 v 11.04995 h 13.499945 v -11.04995 h 3.199803 v 11.04995 h 13.49995 v -11.04995 h 3.20032 v 11.04995 h 13.49996 v -11.04995 h 3.1998 v 11.04995 h 13.49995 v -11.04995 h 3.20032 v 11.04995 h 13.49996 v -11.04995 h 3.1998 v 11.04995 h 13.49995 v -11.04995 h 3.20032 v 11.04995 h 10.40092 v 0.0196 h 28.66855 v -15.70651 h -0.0196 v -8.36332"
       id="path4690-4-67"
       inkscape:connector-curvature="0"
       sodipodi:nodetypes="cccccccccccccccccccccccccccccccccccccccccccccccc" />
    <path
       inkscape:connector-curvature="0"
       style="fill:#00f300;fill-opacity:0.22429905;stroke:#000000;stroke-width:1;stroke-miterlimit:4;stroke-dasharray:none;stroke-opacity:1"
       d="m 47.275962,126.33874 v 11.04996 h 3.19981 v -11.04995 m 13.49995,0 v 11.04995 h 3.1998 v -11.04995 m 13.49995,0 v 11.04995 h 3.20033 v -11.04995 m 13.499955,0 v 11.04995 h 3.199813 v -11.04995 m 13.49994,0 v 11.04995 h 3.20032 v -11.04995 m 13.49995,0 v 11.04995 h 3.19981 v -11.04995 m 13.49995,0 v 11.04995 h 3.20032 v -11.04995 m 13.49995,0 v 11.04995 h 3.1998 v -11.04995 m 13.49996,0 v 11.04995 h 3.20032 v -11.04995 m 39.06946,-0.0196 v 15.70651 h -0.0196 v 8.36332 l -214.9502383,-1e-5 v -7.33237 h -0.0212 v -16.75866"
       id="path4690-4-6-1"
       sodipodi:nodetypes="cccccccccccccccccccccccccccccccccccccccccccc" />
    <path
       style="fill:#00f300;fill-opacity:0.22429905;stroke:#000000;stroke-width:1;stroke-miterlimit:4;stroke-dasharray:none;stroke-opacity:1"
       d="m 8.1755117,150.38897 v 7.33237 h -0.0212 V 174.48 H 39.942032 v -0.0408 h 7.33393 v -11.04995 h 3.19981 v 11.04995 h 13.49994 v -11.04995 h 3.1998 v 11.04995 h 13.49996 v -11.04995 h 3.20032 v 11.04995 h 13.499955 v -11.04995 h 3.199813 v 11.04995 h 13.49995 v -11.04995 h 3.20032 v 11.04995 h 13.49995 v -11.04995 h 3.1998 v 11.04995 h 13.49996 v -11.04995 h 3.20032 v 11.04995 h 13.49995 v -11.04995 h 3.1998 v 11.04995 h 13.49995 v -11.04995 h 3.20032 v 11.04995 h 10.40092 v 0.0196 h 28.66854 v -15.70651 h -0.0196 v -8.36332"
       id="path4690-4-8"
       inkscape:connector-curvature="0"
       sodipodi:nodetypes="cccccccccccccccccccccccccccccccccccccccccccccccc" />
    <path
       inkscape:connector-curvature="0"
       style="fill:#00f300;fill-opacity:0.22429905;stroke:#000000;stroke-width:1;stroke-miterlimit:4;stroke-dasharray:none;stroke-opacity:1"
       d="m 47.275952,174.43919 v 11.04996 h 3.19981 V 174.4392 m 13.49996,0 v 11.04995 h 3.1998 V 174.4392 m 13.49995,0 v 11.04995 h 3.20033 V 174.4392 m 13.499955,0 v 11.04995 h 3.199803 V 174.4392 m 13.49995,0 v 11.04995 h 3.20032 V 174.4392 m 13.49995,0 v 11.04995 h 3.19981 V 174.4392 m 13.49995,0 v 11.04995 h 3.20032 V 174.4392 m 13.49995,0 v 11.04995 h 3.1998 V 174.4392 m 13.49996,0 v 11.04995 h 3.20032 V 174.4392 m 39.06946,-0.0196 v 15.70651 h -0.0196 v 8.36332 l -214.9502483,-1e-5 v -7.33237 h -0.0212 v -16.75866"
       id="path4690-4-6-1-9"
       sodipodi:nodetypes="cccccccccccccccccccccccccccccccccccccccccccc" />
    <path
       style="fill:#00f300;fill-opacity:0.22429905;stroke:#000000;stroke-width:1;stroke-miterlimit:4;stroke-dasharray:none;stroke-opacity:1"
       d="m 8.1755017,6.077605 v -7.33237 h -0.0212 v -16.75866 H 39.942022 v 0.0408 h 7.33393 v 11.0499503 h 3.19981 V -17.972625 h 13.49994 v 11.0499503 h 3.1998 V -17.972625 h 13.49995 v 11.0499503 h 3.20033 V -17.972625 h 13.499955 v 11.0499503 h 3.199803 V -17.972625 h 13.49996 v 11.0499503 h 3.20032 V -17.972625 h 13.49995 v 11.0499503 h 3.1998 V -17.972625 h 13.49996 v 11.0499503 h 3.20032 V -17.972625 h 13.49995 v 11.0499503 h 3.1998 V -17.972625 h 13.49995 v 11.0499503 h 3.20031 V -17.972625 h 10.40092 v -0.0196 h 28.66855 v 15.7065103 h -0.0196 V 6.077605 Z"
       id="path4690-4-69"
       inkscape:connector-curvature="0"
       sodipodi:nodetypes="ccccccccccccccccccccccccccccccccccccccccccccccccc" />
    <path
       inkscape:connector-curvature="0"
       style="fill:#00f300;fill-opacity:0.22429905;stroke:#000000;stroke-width:1;stroke-miterlimit:4;stroke-dasharray:none;stroke-opacity:1"
       d="m 47.275958,223.62126 v 11.04996 h 3.19981 v -11.04995 m 13.49995,0 v 11.04995 h 3.1998 v -11.04995 m 13.49995,0 v 11.04995 h 3.20033 v -11.04995 m 13.499959,0 v 11.04995 h 3.199813 v -11.04995 m 13.49994,0 v 11.04995 h 3.20032 v -11.04995 m 13.49995,0 v 11.04995 h 3.19981 v -11.04995 m 13.49995,0 v 11.04995 h 3.20032 v -11.04995 m 13.49995,0 v 11.04995 h 3.1998 v -11.04995 m 13.49996,0 v 11.04995 h 3.20032 v -11.04995 m 39.06946,-0.0196 v 15.70651 h -0.0196 v 8.36332 l -214.9502423,-1e-5 v -7.33237 h -0.0212 v -16.75866"
       id="path4690-4-6-1-5"
       sodipodi:nodetypes="cccccccccccccccccccccccccccccccccccccccccccc" />
    <path
       style="fill:#00f300;fill-opacity:0.22429905;stroke:#000000;stroke-width:1;stroke-miterlimit:4;stroke-dasharray:none;stroke-opacity:1"
       d="m 8.1755127,198.98943 v 7.33237 h -0.0212 v 16.75866 H 39.942033 v -0.0408 h 7.33393 v -11.04995 h 3.19981 v 11.04995 h 13.49994 v -11.04995 h 3.1998 v 11.04995 h 13.49996 v -11.04995 h 3.20032 v 11.04995 h 13.499964 v -11.04995 h 3.199813 v 11.04995 h 13.49995 v -11.04995 h 3.20032 v 11.04995 h 13.49995 v -11.04995 h 3.1998 v 11.04995 h 13.49996 v -11.04995 h 3.20032 v 11.04995 h 13.49995 v -11.04995 h 3.1998 v 11.04995 h 13.49995 v -11.04995 h 3.20032 v 11.04995 h 10.40092 v 0.0196 h 28.66854 v -15.70651 h -0.0196 v -8.36332"
       id="path4690-4-8-2"
       inkscape:connector-curvature="0"
       sodipodi:nodetypes="cccccccccccccccccccccccccccccccccccccccccccccccc" />
    <path
       inkscape:connector-curvature="0"
       style="fill:#00f300;fill-opacity:0.22429905;stroke:#000000;stroke-width:1;stroke-miterlimit:4;stroke-dasharray:none;stroke-opacity:1"
       d="m 47.27593,-17.972615 v -11.04996 h 3.19981 v 11.04995 m 13.49996,0 v -11.04995 h 3.1998 v 11.04995 m 13.499952,0 v -11.04995 h 3.20033 v 11.04995 m 13.499965,0 v -11.04995 h 3.199803 v 11.04995 m 13.49995,0 v -11.04995 h 3.20032 v 11.04995 m 13.49995,0 v -11.04995 h 3.19981 v 11.04995 m 13.49995,0 v -11.04995 h 3.20032 v 11.04995 m 13.49996,0 v -11.04995 h 3.1998 v 11.04995 m 13.49996,0 v -11.04995 h 3.20032 v 11.04995 m 39.06946,0.0196 v -15.70651 h -0.0196 v -8.36332 l -214.9502743,1e-5 v 7.33236 h -0.0212 v 16.75866"
       id="path4690-4-6-1-9-5"
       sodipodi:nodetypes="cccccccccccccccccccccccccccccccccccccccccccc" />
    <g
       id="g1378">
      <g
         id="g1392"
         transform="rotate(90,393.33207,111.91193)">
        <path
           style="opacity:1;fill:#d46500;fill-opacity:0.22429905;stroke:#000000;stroke-width:1;stroke-miterlimit:4;stroke-dasharray:none;stroke-opacity:1"
           d="m 415.19286,88.226127 -0.0566,12.999603 -3.20029,-0.0139 0.0567,-12.999613 m -13.49982,-0.0588 -0.0567,12.999603 -3.19977,-0.0139 0.0566,-12.999613 m -13.49983,-0.0588 -0.0567,12.999613 -3.20029,-0.014 0.0567,-12.999603 m -13.49983,-0.0588 -0.0566,12.999603 -3.19977,-0.0139 0.0566,-12.999613 m -13.49982,-0.0588 -0.0566,12.999613 -3.20029,-0.0139 0.0567,-12.999613 m -13.49983,-0.0588 -0.0566,12.999613 -3.19976,-0.0139 0.0567,-12.999613 m -13.49983,-0.0588 -0.0566,12.999613 -3.20029,-0.014 0.0566,-12.999603 m -13.49982,-0.0588 -0.0566,12.999603 -3.19977,-0.0139 0.0566,-12.999613 m -13.49982,-0.0588 -0.0566,12.999613 -3.2003,-0.014 0.0567,-12.999603 m -39.07528,-0.17029 -0.0566,12.999613 -0.0349,7.99994 22.37569,0.098 16.87995,0.0736 -0.0226,5.18001 136.61121,0.43564 0.0219,-5.02082 17.60806,0.0767 21.47393,0.0936 0.0349,-7.99995 0.0567,-12.999603"
           id="path924"
           inkscape:connector-curvature="0"
           sodipodi:nodetypes="cccccccccccccccccccccccccccccccccccccccccccccccc" />
        <path
           sodipodi:nodetypes="cccccccccccccccccccccccccccccccccccccccccccccccccc"
           style="opacity:1;fill:#d46500;fill-opacity:0.22429905;stroke:#000000;stroke-width:1;stroke-miterlimit:4;stroke-dasharray:none;stroke-opacity:1"
           d="m 278.51539,61.609613 -0.0219,5.020822 -17.60805,-0.07673 -21.47395,-0.09358 -0.0349,7.999942 -0.0566,12.99962 25.57391,0.11145 13.49982,0.0588 0.0566,-12.99962 3.2003,0.0139 -0.0566,12.99962 13.49982,0.0588 0.0566,-12.99962 3.19977,0.0139 -0.0566,12.99962 13.49982,0.0588 0.0566,-12.99962 3.20029,0.014 -0.0566,12.99962 13.49983,0.0588 0.0566,-12.99962 3.19976,0.0139 -0.0566,12.99961 13.49982,0.0588 0.0566,-12.99961 3.20029,0.014 -0.0566,12.99961 13.49982,0.0588 0.0567,-12.99961 3.19977,0.0139 -0.0567,12.99961 13.49984,0.0588 0.0566,-12.99961 3.20029,0.014 -0.0566,12.99961 13.49982,0.0588 0.0566,-12.99962 3.19977,0.0139 -0.0566,12.99962 13.49982,0.0588 0.0566,-12.99961 3.20029,0.014 -0.0566,12.99961 13.49983,0.0588 25.57546,0.11146 0.0567,-12.99962 0.0349,-7.99994 -22.37569,-0.0975 -16.87994,-0.0736 0.0226,-5.180525"
           id="path914"
           inkscape:connector-curvature="0" />
        <path
           style="opacity:1;fill:#d46500;fill-opacity:0.22429905;stroke:#000000;stroke-width:1;stroke-miterlimit:4;stroke-dasharray:none;stroke-opacity:1"
           d="m 415.13746,140.42733 -0.0566,12.99961 -3.20029,-0.014 0.0566,-12.99961 m -13.49982,-0.0588 -0.0566,12.99961 -3.19977,-0.0139 0.0566,-12.9996 m -13.49983,-0.0588 -0.0567,12.9996 -3.20029,-0.0139 0.0566,-12.99961 m -13.49982,-0.0588 -0.0567,12.9996 -3.19976,-0.0139 0.0567,-12.99961 m -13.49983,-0.0588 -0.0566,12.99961 -3.20029,-0.0139 0.0567,-12.99961 m -13.49984,-0.0588 -0.0567,12.99961 -3.19976,-0.0139 0.0566,-12.99961 m -13.49983,-0.0588 -0.0567,12.99959 -3.20029,-0.0139 0.0566,-12.99961 m -13.49982,-0.0588 -0.0566,12.9996 -3.19977,-0.0139 0.0566,-12.9996 m -13.49982,-0.0588 -0.0566,12.9996 -3.2003,-0.0139 0.0566,-12.99959 m -39.07528,-0.17029 -0.0567,12.9996 -0.0349,7.99995 22.37568,0.098 16.87995,0.0736 -0.0226,5.18001 136.61121,0.43565 0.0219,-5.02083 17.60805,0.0767 21.47393,0.0936 0.0349,-7.99994 0.0566,-12.99961"
           id="path924-7"
           inkscape:connector-curvature="0"
           sodipodi:nodetypes="cccccccccccccccccccccccccccccccccccccccccccccccc" />
        <path
           sodipodi:nodetypes="cccccccccccccccccccccccccccccccccccccccccccccccccc"
           style="opacity:1;fill:#d46500;fill-opacity:0.22429905;stroke:#000000;stroke-width:1;stroke-miterlimit:4;stroke-dasharray:none;stroke-opacity:1"
           d="m 278.45999,113.81083 -0.0219,5.02082 -17.60805,-0.0767 -21.47394,-0.0936 -0.0349,7.99994 -0.0567,12.99962 25.57391,0.11144 13.49982,0.0588 0.0566,-12.99962 3.2003,0.0139 -0.0567,12.9996 13.49982,0.0588 0.0567,-12.99962 3.19977,0.0139 -0.0567,12.99962 13.49982,0.0588 0.0567,-12.99962 3.20029,0.0139 -0.0566,12.99962 13.49983,0.0588 0.0567,-12.99962 3.19975,0.014 -0.0566,12.99961 13.49983,0.0588 0.0566,-12.99961 3.20029,0.0139 -0.0567,12.99962 13.49983,0.0588 0.0566,-12.99961 3.19977,0.0139 -0.0566,12.99962 13.49983,0.0588 0.0567,-12.99962 3.20029,0.0139 -0.0566,12.99962 13.49982,0.0588 0.0566,-12.99962 3.19977,0.0139 -0.0566,12.99962 13.49982,0.0588 0.0566,-12.99961 3.20029,0.0139 -0.0566,12.99962 13.49983,0.0588 25.57546,0.11146 0.0566,-12.99962 0.0349,-7.99994 -22.37568,-0.0975 -16.87995,-0.0736 0.0226,-5.18052"
           id="path914-1"
           inkscape:connector-curvature="0" />
        <path
           style="opacity:1;fill:#d46500;fill-opacity:0.22429905;stroke:#000000;stroke-width:1;stroke-miterlimit:4;stroke-dasharray:none;stroke-opacity:1"
           d="m 415.30365,-16.176287 -0.0567,12.9996059 -3.20029,-0.01395 0.0567,-12.9996059 m -13.49983,-0.05883 -0.0567,12.9996059 -3.19977,-0.01394 0.0567,-12.9996069 m -13.49983,-0.05883 -0.0566,12.9996059 -3.20029,-0.01395 0.0566,-12.9996059 m -13.49982,-0.05883 -0.0566,12.9996059 -3.19977,-0.01394 0.0566,-12.9996069 m -13.49982,-0.05883 -0.0566,12.9996059 -3.20029,-0.01395 0.0566,-12.9996059 m -13.49983,-0.05883 -0.0566,12.9996059 -3.19976,-0.01394 0.0566,-12.9996069 m -13.49983,-0.05883 -0.0567,12.9996059 -3.20028,-0.01395 0.0566,-12.9996059 m -13.49983,-0.05883 -0.0566,12.9996059 -3.19977,-0.01394 0.0567,-12.9996069 m -13.49983,-0.05883 -0.0566,12.9996069 -3.2003,-0.01395 0.0566,-12.9996069 m -39.07528,-0.170288 -0.0567,12.9996069 -0.0349,7.999944 22.37569,0.09802 16.87995,0.07356 -0.0226,5.180011 136.61121,0.435642 0.0219,-5.020822 17.60805,0.07673 21.47394,0.09358 0.0349,-7.999945 0.0566,-12.9996059"
           id="path924-1"
           inkscape:connector-curvature="0"
           sodipodi:nodetypes="cccccccccccccccccccccccccccccccccccccccccccccccc" />
        <path
           style="opacity:1;fill:#d46500;fill-opacity:0.22429905;stroke:#000000;stroke-width:1;stroke-miterlimit:4;stroke-dasharray:none;stroke-opacity:1"
           d="m 415.23739,-42.357155 -136.6112,-0.435642 -0.0219,5.020823 -17.60805,-0.07673 -21.47395,-0.09358 -0.0349,7.999944 -0.0567,12.999616 25.57391,0.11145 13.49982,0.05883 0.0567,-12.999616 3.20029,0.01395 -0.0566,12.999617 13.49983,0.05883 0.0567,-12.999616 3.19977,0.01394 -0.0567,12.999617 13.49983,0.05883 0.0567,-12.999616 3.20029,0.01395 -0.0567,12.999617 13.49983,0.05883 0.0566,-12.999616 3.19976,0.01394 -0.0567,12.999617 13.49982,0.05883 0.0567,-12.999617 3.20029,0.01395 -0.0566,12.999617 13.49982,0.05883 0.0566,-12.999616 3.19977,0.01394 -0.0566,12.999617 13.49983,0.05883 0.0566,-12.999617 3.20029,0.01395 -0.0566,12.999617 13.49982,0.05883 0.0567,-12.999616 3.19976,0.01394 -0.0566,12.999616 13.49983,0.05883 0.0566,-12.999617 3.20029,0.01395 -0.0567,12.999617 13.49984,0.05883 25.57545,0.111456 0.0567,-12.999616 0.0349,-7.999944 -22.37569,-0.09751 -16.87995,-0.07356 z"
           id="path914-11"
           inkscape:connector-curvature="0" />
        <path
           style="opacity:1;fill:#d46500;fill-opacity:0.22429905;stroke:#000000;stroke-width:1;stroke-miterlimit:4;stroke-dasharray:none;stroke-opacity:1"
           d="m 415.24825,36.024917 -0.0566,12.999606 -3.20029,-0.01395 0.0566,-12.999607 m -13.49982,-0.05883 -0.0567,12.999606 -3.19977,-0.01394 0.0567,-12.999607 m -13.49984,-0.05883 -0.0566,12.999606 -3.20029,-0.01395 0.0566,-12.999607 m -13.49982,-0.05883 -0.0566,12.999606 -3.19977,-0.01394 0.0566,-12.999607 m -13.49982,-0.05883 -0.0566,12.999607 -3.20029,-0.01395 0.0566,-12.999607 m -13.49983,-0.05883 -0.0566,12.999606 -3.19976,-0.01394 0.0566,-12.999607 m -13.49983,-0.05883 -0.0566,12.999607 -3.20029,-0.01395 0.0566,-12.999607 m -13.49982,-0.05883 -0.0566,12.999607 -3.19977,-0.01394 0.0566,-12.999606 m -13.49982,-0.05883 -0.0567,12.999607 -3.2003,-0.01395 0.0567,-12.999607 m -39.07528,-0.170287 -0.0566,12.999606 -0.0349,7.999945 22.37569,0.09802 16.87995,0.07356 -0.0226,5.180011 136.61121,0.435642 0.0219,-5.020823 17.60805,0.07673 21.47394,0.09358 0.0349,-7.999945 0.0567,-12.999606"
           id="path924-7-2"
           inkscape:connector-curvature="0"
           sodipodi:nodetypes="cccccccccccccccccccccccccccccccccccccccccccccccc" />
        <path
           sodipodi:nodetypes="cccccccccccccccccccccccccccccccccccccccccccccccccc"
           style="opacity:1;fill:#d46500;fill-opacity:0.22429905;stroke:#000000;stroke-width:1;stroke-miterlimit:4;stroke-dasharray:none;stroke-opacity:1"
           d="m 278.57079,9.4084079 -0.0219,5.0208221 -17.60805,-0.07673 -21.47395,-0.09358 -0.0349,7.999944 -0.0566,12.999616 25.5739,0.11145 13.49983,0.05883 0.0566,-12.999616 3.2003,0.01395 -0.0566,12.999616 13.49982,0.05883 0.0566,-12.999617 3.19977,0.01394 -0.0566,12.999617 13.49982,0.05883 0.0566,-12.999616 3.20029,0.01395 -0.0566,12.999616 13.49983,0.05883 0.0566,-12.999617 3.19976,0.01394 -0.0566,12.999617 13.49982,0.05883 0.0566,-12.999616 3.20029,0.01395 -0.0566,12.999617 13.49982,0.05883 0.0566,-12.999616 3.19977,0.01394 -0.0566,12.999617 13.49983,0.05883 0.0567,-12.999616 3.20029,0.01395 -0.0567,12.999617 13.49983,0.05883 0.0566,-12.999616 3.19977,0.01394 -0.0566,12.999617 13.49982,0.05883 0.0566,-12.999616 3.20029,0.01395 -0.0566,12.999617 13.49983,0.05883 25.57546,0.111457 0.0566,-12.999617 0.0349,-7.999944 -22.37569,-0.09751 -16.87995,-0.07356 0.0226,-5.1805201"
           id="path914-1-7"
           inkscape:connector-curvature="0" />
        <path
           style="opacity:1;fill:#d46500;fill-opacity:0.22429905;stroke:#000000;stroke-width:1;stroke-miterlimit:4;stroke-dasharray:none;stroke-opacity:1"
           d="m 278.40461,166.01202 -0.0219,5.02083 -17.60806,-0.0767 -21.47394,-0.0936 -0.0349,7.99994 -0.0566,12.99962 25.57391,0.11145 13.49982,0.0588 0.0566,-12.99962 3.2003,0.0139 -0.0566,12.99962 13.49982,0.0588 0.0566,-12.99962 3.19977,0.0139 -0.0566,12.99961 13.49982,0.0588 0.0567,-12.99962 3.20029,0.014 -0.0567,12.99961 13.49984,0.0588 0.0566,-12.99961 3.19976,0.0139 -0.0566,12.99962 13.49982,0.0588 0.0566,-12.99962 3.20029,0.0139 -0.0566,12.99962 13.49982,0.0588 0.0566,-12.99962 3.19976,0.0139 -0.0567,12.99961 13.49983,0.0588 0.0566,-12.99961 3.2003,0.0139 -0.0567,12.99962 13.49982,0.0588 0.0567,-12.99962 3.19977,0.0139 -0.0567,12.99962 13.49982,0.0588 0.0567,-12.99962 3.20029,0.0139 -0.0567,12.99961 13.49983,0.0588 25.57546,0.11145 0.0566,-12.99962 0.0349,-7.99994 -22.37569,-0.0975 -16.87995,-0.0736 0.0226,-5.18052"
           id="path914-11-0"
           inkscape:connector-curvature="0"
           sodipodi:nodetypes="cccccccccccccccccccccccccccccccccccccccccccccccccc" />
        <path
           style="opacity:1;fill:#d46500;fill-opacity:0.22429905;stroke:#000000;stroke-width:1;stroke-miterlimit:4;stroke-dasharray:none;stroke-opacity:1"
           d="m 415.08208,192.62806 -0.0566,12.99961 -3.20029,-0.014 0.0566,-12.99961 m -13.49982,-0.0588 -0.0566,12.9996 -3.19977,-0.0139 0.0566,-12.9996 m -13.49983,-0.0588 -0.0567,12.9996 -3.20029,-0.0139 0.0566,-12.9996 m -13.49982,-0.0588 -0.0567,12.9996 -3.19976,-0.0139 0.0567,-12.99962 m -13.49983,-0.0588 -0.0566,12.99961 -3.20029,-0.0139 0.0567,-12.9996 m -13.49984,-0.0588 -0.0567,12.99961 -3.19976,-0.0139 0.0566,-12.99961 m -13.49983,-0.0588 -0.0567,12.99959 -3.20029,-0.0139 0.0566,-12.99961 m -13.49982,-0.0588 -0.0566,12.99961 -3.19977,-0.0139 0.0566,-12.9996 m -13.49982,-0.0588 -0.0566,12.9996 -3.2003,-0.0139 0.0566,-12.99959 m -39.07528,-0.17037 -0.0567,12.9996 -0.0349,7.99994 22.37568,0.098 16.87996,0.0736 -0.0226,5.18001 136.61121,0.43565 0.0219,-5.02083 17.60805,0.0767 21.47393,0.0936 0.0349,-7.99994 0.0566,-12.99961"
           id="path924-7-7"
           inkscape:connector-curvature="0"
           sodipodi:nodetypes="cccccccccccccccccccccccccccccccccccccccccccccccc" />
        <path
           sodipodi:nodetypes="cccccccccccccccccccccccccccccccccccccccccccccccccc"
           style="opacity:1;fill:#d46500;fill-opacity:0.22429905;stroke:#000000;stroke-width:1;stroke-miterlimit:4;stroke-dasharray:none;stroke-opacity:1"
           d="m 278.34891,218.21323 -0.0219,5.02081 -17.60805,-0.0767 -21.47394,-0.0936 -0.0349,7.99995 -0.0567,12.99962 25.57391,0.11145 13.49982,0.0588 0.0566,-12.99962 3.2003,0.0139 -0.0567,12.99961 13.49982,0.0588 0.0567,-12.99962 3.19977,0.0139 -0.0567,12.99962 13.49982,0.0588 0.0567,-12.99962 3.20029,0.0139 -0.0566,12.99962 13.49983,0.0588 0.0567,-12.99962 3.19975,0.014 -0.0566,12.99961 13.49983,0.0588 0.0566,-12.99961 3.20029,0.0139 -0.0567,12.99962 13.49983,0.0588 0.0566,-12.99961 3.19977,0.0139 -0.0566,12.99962 13.49983,0.0588 0.0567,-12.99962 3.20029,0.0139 -0.0566,12.99962 13.49982,0.0588 0.0566,-12.99962 3.19977,0.0139 -0.0566,12.99962 13.49982,0.0588 0.0566,-12.99962 3.20029,0.0139 -0.0566,12.99962 13.49983,0.0588 25.57547,0.11146 0.0566,-12.99962 0.0349,-7.99994 -22.37568,-0.0975 -16.87995,-0.0736 0.0226,-5.18052"
           id="path914-1-9"
           inkscape:connector-curvature="0" />
        <path
           style="opacity:1;fill:#d46500;fill-opacity:0.22429905;stroke:#000000;stroke-width:1;stroke-miterlimit:4;stroke-dasharray:none;stroke-opacity:1"
           d="m 415.02648,244.82917 -0.0566,12.99961 -3.20029,-0.014 0.0566,-12.99961 m -13.49982,-0.0588 -0.0566,12.9996 -3.19977,-0.0139 0.0566,-12.9996 m -13.49983,-0.0588 -0.0567,12.9996 -3.20029,-0.0139 0.0566,-12.9996 m -13.49982,-0.0588 -0.0567,12.9996 -3.19976,-0.0139 0.0567,-12.99962 m -13.49983,-0.0588 -0.0566,12.99961 -3.20029,-0.0139 0.0567,-12.9996 m -13.49984,-0.0588 -0.0567,12.99961 -3.19976,-0.0139 0.0566,-12.99961 m -13.49983,-0.0588 -0.0567,12.99959 -3.20029,-0.0139 0.0566,-12.99961 m -13.49982,-0.0588 -0.0566,12.99961 -3.19977,-0.0139 0.0566,-12.9996 m -13.49982,-0.0588 -0.0566,12.9996 -3.2003,-0.0139 0.0566,-12.99959 m -39.07528,-0.17037 -0.0567,12.9996 -0.0349,7.99994 22.37568,0.098 16.87996,0.0736 -0.0226,5.18001 136.61121,0.43565 0.0219,-5.02083 17.60805,0.0767 21.47393,0.0936 0.0349,-7.99994 0.0566,-12.99961"
           id="path924-7-7-7"
           inkscape:connector-curvature="0"
           sodipodi:nodetypes="cccccccccccccccccccccccccccccccccccccccccccccccc" />
      </g>
    </g>
  </g>
</svg>
